<mxfile host="65bd71144e">
    <diagram id="y7NGtSW4NpLqVGNgTR3C" name="Page-1">
        <mxGraphModel dx="730" dy="565" grid="1" gridSize="10" guides="1" tooltips="1" connect="1" arrows="1" fold="1" page="1" pageScale="1" pageWidth="827" pageHeight="1169" math="0" shadow="0">
            <root>
                <mxCell id="0"/>
                <mxCell id="1" parent="0"/>
                <mxCell id="vr0si7nwVERaPmqfHwFy-69" value="" style="rounded=0;whiteSpace=wrap;html=1;fillColor=#4D4D4D;" parent="1" vertex="1">
                    <mxGeometry x="84" y="215" width="600" height="550" as="geometry"/>
                </mxCell>
                <mxCell id="vr0si7nwVERaPmqfHwFy-49" value="" style="rounded=0;whiteSpace=wrap;html=1;strokeColor=#d79b00;fillColor=#ffe6cc;" parent="1" vertex="1">
                    <mxGeometry x="244" y="580" width="200" height="170" as="geometry"/>
                </mxCell>
                <mxCell id="vr0si7nwVERaPmqfHwFy-45" value="" style="rounded=0;whiteSpace=wrap;html=1;strokeColor=#b85450;fillColor=#f8cecc;" parent="1" vertex="1">
                    <mxGeometry x="424" y="320" width="210" height="160" as="geometry"/>
                </mxCell>
                <mxCell id="vr0si7nwVERaPmqfHwFy-44" value="" style="rounded=0;whiteSpace=wrap;html=1;strokeColor=#9673a6;fillColor=#e1d5e7;" parent="1" vertex="1">
                    <mxGeometry x="364" y="480" width="270" height="100" as="geometry"/>
                </mxCell>
                <mxCell id="vr0si7nwVERaPmqfHwFy-43" value="" style="rounded=0;whiteSpace=wrap;html=1;strokeColor=#d6b656;fillColor=#fff2cc;" parent="1" vertex="1">
                    <mxGeometry x="124" y="480" width="200" height="100" as="geometry"/>
                </mxCell>
                <mxCell id="vr0si7nwVERaPmqfHwFy-42" value="" style="rounded=0;whiteSpace=wrap;html=1;strokeColor=#82b366;fillColor=#d5e8d4;" parent="1" vertex="1">
                    <mxGeometry x="161" y="360" width="263" height="120" as="geometry"/>
                </mxCell>
                <mxCell id="vr0si7nwVERaPmqfHwFy-41" value="" style="rounded=0;whiteSpace=wrap;html=1;strokeColor=#6c8ebf;fillColor=#dae8fc;" parent="1" vertex="1">
                    <mxGeometry x="161" y="260" width="263" height="100" as="geometry"/>
                </mxCell>
                <mxCell id="vr0si7nwVERaPmqfHwFy-71" style="edgeStyle=orthogonalEdgeStyle;rounded=0;orthogonalLoop=1;jettySize=auto;html=1;exitX=0.96;exitY=0.7;exitDx=0;exitDy=0;exitPerimeter=0;entryX=0.25;entryY=0;entryDx=0;entryDy=0;" parent="1" source="vr0si7nwVERaPmqfHwFy-1" target="vr0si7nwVERaPmqfHwFy-5" edge="1">
                    <mxGeometry relative="1" as="geometry">
                        <Array as="points">
                            <mxPoint x="314" y="176"/>
                        </Array>
                    </mxGeometry>
                </mxCell>
                <mxCell id="vr0si7nwVERaPmqfHwFy-1" value="Browser" style="ellipse;shape=cloud;whiteSpace=wrap;html=1;" parent="1" vertex="1">
                    <mxGeometry x="34" y="120" width="120" height="80" as="geometry"/>
                </mxCell>
                <mxCell id="vr0si7nwVERaPmqfHwFy-4" value="Request HTTP" style="text;html=1;strokeColor=none;fillColor=none;align=center;verticalAlign=middle;whiteSpace=wrap;rounded=0;fontSize=9;" parent="1" vertex="1">
                    <mxGeometry x="152.5" y="160" width="80" height="20" as="geometry"/>
                </mxCell>
                <mxCell id="vr0si7nwVERaPmqfHwFy-10" style="edgeStyle=orthogonalEdgeStyle;rounded=0;orthogonalLoop=1;jettySize=auto;html=1;entryX=0.5;entryY=0;entryDx=0;entryDy=0;" parent="1" source="vr0si7nwVERaPmqfHwFy-5" target="vr0si7nwVERaPmqfHwFy-9" edge="1">
                    <mxGeometry relative="1" as="geometry"/>
                </mxCell>
                <mxCell id="vr0si7nwVERaPmqfHwFy-74" style="edgeStyle=orthogonalEdgeStyle;rounded=0;orthogonalLoop=1;jettySize=auto;html=1;entryX=0.88;entryY=0.25;entryDx=0;entryDy=0;entryPerimeter=0;fontSize=9;exitX=0.5;exitY=0;exitDx=0;exitDy=0;" parent="1" source="vr0si7nwVERaPmqfHwFy-5" target="vr0si7nwVERaPmqfHwFy-1" edge="1">
                    <mxGeometry relative="1" as="geometry">
                        <Array as="points">
                            <mxPoint x="344" y="140"/>
                        </Array>
                    </mxGeometry>
                </mxCell>
                <mxCell id="vr0si7nwVERaPmqfHwFy-5" value="main/index" style="rounded=0;whiteSpace=wrap;html=1;" parent="1" vertex="1">
                    <mxGeometry x="284" y="270" width="120" height="30" as="geometry"/>
                </mxCell>
                <mxCell id="vr0si7nwVERaPmqfHwFy-7" value="App" style="text;html=1;align=center;verticalAlign=middle;whiteSpace=wrap;rounded=0;strokeColor=#d6b656;fillColor=#fff2cc;fontColor=#121212;" parent="1" vertex="1">
                    <mxGeometry x="84" y="215" width="40" height="20" as="geometry"/>
                </mxCell>
                <mxCell id="vr0si7nwVERaPmqfHwFy-12" style="edgeStyle=orthogonalEdgeStyle;rounded=0;orthogonalLoop=1;jettySize=auto;html=1;exitX=0.25;exitY=1;exitDx=0;exitDy=0;entryX=0.25;entryY=0;entryDx=0;entryDy=0;" parent="1" source="vr0si7nwVERaPmqfHwFy-9" target="vr0si7nwVERaPmqfHwFy-11" edge="1">
                    <mxGeometry relative="1" as="geometry"/>
                </mxCell>
                <mxCell id="vr0si7nwVERaPmqfHwFy-57" style="edgeStyle=orthogonalEdgeStyle;rounded=0;orthogonalLoop=1;jettySize=auto;html=1;entryX=0;entryY=0.5;entryDx=0;entryDy=0;exitX=1;exitY=0.25;exitDx=0;exitDy=0;" parent="1" source="vr0si7nwVERaPmqfHwFy-11" target="vr0si7nwVERaPmqfHwFy-56" edge="1">
                    <mxGeometry relative="1" as="geometry">
                        <Array as="points">
                            <mxPoint x="434" y="398"/>
                            <mxPoint x="434" y="370"/>
                        </Array>
                    </mxGeometry>
                </mxCell>
                <mxCell id="vr0si7nwVERaPmqfHwFy-9" value="routers" style="rounded=0;whiteSpace=wrap;html=1;" parent="1" vertex="1">
                    <mxGeometry x="284" y="320" width="120" height="30" as="geometry"/>
                </mxCell>
                <mxCell id="vr0si7nwVERaPmqfHwFy-14" style="edgeStyle=orthogonalEdgeStyle;rounded=0;orthogonalLoop=1;jettySize=auto;html=1;" parent="1" source="vr0si7nwVERaPmqfHwFy-11" target="vr0si7nwVERaPmqfHwFy-13" edge="1">
                    <mxGeometry relative="1" as="geometry"/>
                </mxCell>
                <mxCell id="vr0si7nwVERaPmqfHwFy-62" style="edgeStyle=orthogonalEdgeStyle;rounded=0;orthogonalLoop=1;jettySize=auto;html=1;entryX=0.738;entryY=0.997;entryDx=0;entryDy=0;entryPerimeter=0;exitX=0.722;exitY=0.02;exitDx=0;exitDy=0;exitPerimeter=0;" parent="1" source="vr0si7nwVERaPmqfHwFy-11" target="vr0si7nwVERaPmqfHwFy-9" edge="1">
                    <mxGeometry relative="1" as="geometry">
                        <Array as="points">
                            <mxPoint x="373" y="391"/>
                            <mxPoint x="373" y="370"/>
                            <mxPoint x="373" y="370"/>
                        </Array>
                    </mxGeometry>
                </mxCell>
                <mxCell id="vr0si7nwVERaPmqfHwFy-11" value="adapterHttp" style="rounded=0;whiteSpace=wrap;html=1;" parent="1" vertex="1">
                    <mxGeometry x="284" y="390" width="120" height="30" as="geometry"/>
                </mxCell>
                <mxCell id="vr0si7nwVERaPmqfHwFy-23" style="edgeStyle=orthogonalEdgeStyle;rounded=0;orthogonalLoop=1;jettySize=auto;html=1;entryX=0.5;entryY=0;entryDx=0;entryDy=0;exitX=0;exitY=0.5;exitDx=0;exitDy=0;" parent="1" source="vr0si7nwVERaPmqfHwFy-13" target="vr0si7nwVERaPmqfHwFy-16" edge="1">
                    <mxGeometry relative="1" as="geometry"/>
                </mxCell>
                <mxCell id="vr0si7nwVERaPmqfHwFy-34" style="edgeStyle=orthogonalEdgeStyle;rounded=0;orthogonalLoop=1;jettySize=auto;html=1;" parent="1" source="vr0si7nwVERaPmqfHwFy-13" target="vr0si7nwVERaPmqfHwFy-20" edge="1">
                    <mxGeometry relative="1" as="geometry"/>
                </mxCell>
                <mxCell id="vr0si7nwVERaPmqfHwFy-13" value="controller" style="rounded=0;whiteSpace=wrap;html=1;" parent="1" vertex="1">
                    <mxGeometry x="284" y="440" width="120" height="30" as="geometry"/>
                </mxCell>
                <mxCell id="vr0si7nwVERaPmqfHwFy-66" style="edgeStyle=orthogonalEdgeStyle;rounded=0;orthogonalLoop=1;jettySize=auto;html=1;entryX=0.25;entryY=1;entryDx=0;entryDy=0;exitX=0.75;exitY=0;exitDx=0;exitDy=0;" parent="1" source="vr0si7nwVERaPmqfHwFy-16" target="vr0si7nwVERaPmqfHwFy-13" edge="1">
                    <mxGeometry relative="1" as="geometry">
                        <Array as="points">
                            <mxPoint x="314" y="500"/>
                        </Array>
                    </mxGeometry>
                </mxCell>
                <mxCell id="vr0si7nwVERaPmqfHwFy-16" value="validation" style="rounded=0;whiteSpace=wrap;html=1;" parent="1" vertex="1">
                    <mxGeometry x="204" y="500" width="85" height="30" as="geometry"/>
                </mxCell>
                <mxCell id="vr0si7nwVERaPmqfHwFy-48" style="edgeStyle=orthogonalEdgeStyle;rounded=0;orthogonalLoop=1;jettySize=auto;html=1;" parent="1" source="vr0si7nwVERaPmqfHwFy-20" target="vr0si7nwVERaPmqfHwFy-47" edge="1">
                    <mxGeometry relative="1" as="geometry"/>
                </mxCell>
                <mxCell id="vr0si7nwVERaPmqfHwFy-20" value="useCase" style="rounded=0;whiteSpace=wrap;html=1;" parent="1" vertex="1">
                    <mxGeometry x="284" y="630" width="120" height="30" as="geometry"/>
                </mxCell>
                <mxCell id="vr0si7nwVERaPmqfHwFy-36" style="edgeStyle=orthogonalEdgeStyle;rounded=0;orthogonalLoop=1;jettySize=auto;html=1;entryX=0.5;entryY=1;entryDx=0;entryDy=0;" parent="1" source="vr0si7nwVERaPmqfHwFy-24" target="vr0si7nwVERaPmqfHwFy-28" edge="1">
                    <mxGeometry relative="1" as="geometry"/>
                </mxCell>
                <mxCell id="vr0si7nwVERaPmqfHwFy-24" value="repository" style="rounded=0;whiteSpace=wrap;html=1;" parent="1" vertex="1">
                    <mxGeometry x="504" y="510" width="100" height="30" as="geometry"/>
                </mxCell>
                <mxCell id="vr0si7nwVERaPmqfHwFy-27" value="Database" style="shape=cylinder3;whiteSpace=wrap;html=1;boundedLbl=1;backgroundOutline=1;size=15;" parent="1" vertex="1">
                    <mxGeometry x="724" y="320" width="70" height="60" as="geometry"/>
                </mxCell>
                <mxCell id="vr0si7nwVERaPmqfHwFy-30" style="edgeStyle=orthogonalEdgeStyle;rounded=0;orthogonalLoop=1;jettySize=auto;html=1;entryX=0;entryY=0;entryDx=0;entryDy=37.5;entryPerimeter=0;" parent="1" source="vr0si7nwVERaPmqfHwFy-28" target="vr0si7nwVERaPmqfHwFy-27" edge="1">
                    <mxGeometry relative="1" as="geometry"/>
                </mxCell>
                <mxCell id="vr0si7nwVERaPmqfHwFy-28" value="ORM" style="rounded=0;whiteSpace=wrap;html=1;" parent="1" vertex="1">
                    <mxGeometry x="494" y="410" width="120" height="30" as="geometry"/>
                </mxCell>
                <mxCell id="vr0si7nwVERaPmqfHwFy-47" value="entities" style="rounded=0;whiteSpace=wrap;html=1;" parent="1" vertex="1">
                    <mxGeometry x="284" y="690" width="120" height="30" as="geometry"/>
                </mxCell>
                <mxCell id="vr0si7nwVERaPmqfHwFy-51" value="Main" style="text;html=1;align=center;verticalAlign=middle;whiteSpace=wrap;rounded=0;strokeColor=#006EAF;fillColor=#1ba1e2;fontColor=#ffffff;" parent="1" vertex="1">
                    <mxGeometry x="161" y="260" width="40" height="20" as="geometry"/>
                </mxCell>
                <mxCell id="vr0si7nwVERaPmqfHwFy-52" value="Presenter" style="text;html=1;align=center;verticalAlign=middle;whiteSpace=wrap;rounded=0;strokeColor=#2D7600;fillColor=#60a917;fontColor=#ffffff;" parent="1" vertex="1">
                    <mxGeometry x="161" y="360" width="63" height="20" as="geometry"/>
                </mxCell>
                <mxCell id="vr0si7nwVERaPmqfHwFy-53" value="Validation" style="text;html=1;align=center;verticalAlign=middle;whiteSpace=wrap;rounded=0;strokeColor=#B09500;fillColor=#FFE100;fontColor=#000000;" parent="1" vertex="1">
                    <mxGeometry x="124" y="480" width="63" height="20" as="geometry"/>
                </mxCell>
                <mxCell id="vr0si7nwVERaPmqfHwFy-54" value="Infra" style="text;html=1;align=center;verticalAlign=middle;whiteSpace=wrap;rounded=0;strokeColor=#B20000;fillColor=#e51400;fontColor=#ffffff;" parent="1" vertex="1">
                    <mxGeometry x="424" y="320" width="40" height="20" as="geometry"/>
                </mxCell>
                <mxCell id="vr0si7nwVERaPmqfHwFy-55" value="Application" style="text;html=1;align=center;verticalAlign=middle;whiteSpace=wrap;rounded=0;strokeColor=#432D57;fillColor=#76608a;fontColor=#ffffff;" parent="1" vertex="1">
                    <mxGeometry x="364" y="480" width="70" height="20" as="geometry"/>
                </mxCell>
                <mxCell id="vr0si7nwVERaPmqfHwFy-56" value="express" style="rounded=0;whiteSpace=wrap;html=1;" parent="1" vertex="1">
                    <mxGeometry x="454" y="355" width="100" height="30" as="geometry"/>
                </mxCell>
                <mxCell id="vr0si7nwVERaPmqfHwFy-58" value="domain" style="text;html=1;align=center;verticalAlign=middle;whiteSpace=wrap;rounded=0;strokeColor=#BD7000;fillColor=#f0a30a;fontColor=#000000;" parent="1" vertex="1">
                    <mxGeometry x="244" y="580" width="70" height="20" as="geometry"/>
                </mxCell>
                <mxCell id="vr0si7nwVERaPmqfHwFy-60" style="edgeStyle=orthogonalEdgeStyle;rounded=0;orthogonalLoop=1;jettySize=auto;html=1;entryX=0;entryY=0.5;entryDx=0;entryDy=0;exitX=1;exitY=0.5;exitDx=0;exitDy=0;" parent="1" source="vr0si7nwVERaPmqfHwFy-59" target="vr0si7nwVERaPmqfHwFy-9" edge="1">
                    <mxGeometry relative="1" as="geometry">
                        <Array as="points"/>
                    </mxGeometry>
                </mxCell>
                <mxCell id="vr0si7nwVERaPmqfHwFy-59" value="factories" style="rounded=0;whiteSpace=wrap;html=1;" parent="1" vertex="1">
                    <mxGeometry x="190" y="320" width="65" height="30" as="geometry"/>
                </mxCell>
                <mxCell id="vr0si7nwVERaPmqfHwFy-64" style="edgeStyle=orthogonalEdgeStyle;rounded=0;orthogonalLoop=1;jettySize=auto;html=1;entryX=0;entryY=0.5;entryDx=0;entryDy=0;" parent="1" source="vr0si7nwVERaPmqfHwFy-63" target="vr0si7nwVERaPmqfHwFy-24" edge="1">
                    <mxGeometry relative="1" as="geometry"/>
                </mxCell>
                <mxCell id="vr0si7nwVERaPmqfHwFy-65" style="edgeStyle=orthogonalEdgeStyle;rounded=0;orthogonalLoop=1;jettySize=auto;html=1;" parent="1" source="vr0si7nwVERaPmqfHwFy-63" edge="1">
                    <mxGeometry relative="1" as="geometry">
                        <mxPoint x="350" y="470" as="targetPoint"/>
                        <Array as="points">
                            <mxPoint x="350" y="525"/>
                            <mxPoint x="350" y="470"/>
                        </Array>
                    </mxGeometry>
                </mxCell>
                <mxCell id="vr0si7nwVERaPmqfHwFy-63" value="protocol" style="rounded=0;whiteSpace=wrap;html=1;" parent="1" vertex="1">
                    <mxGeometry x="413" y="510" width="70" height="30" as="geometry"/>
                </mxCell>
                <mxCell id="vr0si7nwVERaPmqfHwFy-75" value="Response HTTP" style="text;html=1;strokeColor=none;fillColor=none;align=center;verticalAlign=middle;whiteSpace=wrap;rounded=0;fontSize=9;" parent="1" vertex="1">
                    <mxGeometry x="264" y="120" width="80" height="20" as="geometry"/>
                </mxCell>
                <mxCell id="vr0si7nwVERaPmqfHwFy-78" style="edgeStyle=orthogonalEdgeStyle;rounded=0;orthogonalLoop=1;jettySize=auto;html=1;entryX=0.75;entryY=0;entryDx=0;entryDy=0;fontSize=9;" parent="1" source="vr0si7nwVERaPmqfHwFy-77" target="vr0si7nwVERaPmqfHwFy-20" edge="1">
                    <mxGeometry relative="1" as="geometry">
                        <Array as="points">
                            <mxPoint x="410" y="600"/>
                            <mxPoint x="374" y="600"/>
                        </Array>
                    </mxGeometry>
                </mxCell>
                <mxCell id="vr0si7nwVERaPmqfHwFy-79" style="edgeStyle=orthogonalEdgeStyle;rounded=0;orthogonalLoop=1;jettySize=auto;html=1;entryX=0.5;entryY=1;entryDx=0;entryDy=0;fontSize=9;exitX=0.498;exitY=-0.002;exitDx=0;exitDy=0;exitPerimeter=0;" parent="1" source="vr0si7nwVERaPmqfHwFy-77" target="vr0si7nwVERaPmqfHwFy-63" edge="1">
                    <mxGeometry relative="1" as="geometry">
                        <mxPoint x="449.3380000000001" y="552.8399999999999" as="sourcePoint"/>
                        <mxPoint x="447" y="539.9999999999999" as="targetPoint"/>
                        <Array as="points">
                            <mxPoint x="448" y="553"/>
                        </Array>
                    </mxGeometry>
                </mxCell>
                <mxCell id="vr0si7nwVERaPmqfHwFy-77" value="useCaseImpl" style="rounded=0;whiteSpace=wrap;html=1;" parent="1" vertex="1">
                    <mxGeometry x="394" y="553" width="101" height="20" as="geometry"/>
                </mxCell>
            </root>
        </mxGraphModel>
    </diagram>
</mxfile>